<svg width="586" height="136" viewBox="0 0 586 136" fill="none" xmlns="http://www.w3.org/2000/svg">
<path d="M8.5 134C8.5 100.052 21.9857 67.495 45.9903 43.4903C69.995 19.4857 102.552 6 136.5 6" stroke="#F39C45" stroke-width="8"/>
<path d="M34.1 134C34.1 106.842 44.8885 80.7959 64.0922 61.5922C83.2959 42.3885 109.342 31.6 136.5 31.6" stroke="#F39C45" stroke-opacity="0.8" stroke-width="6"/>
<path d="M59.7 134C59.7 113.631 67.7914 94.0969 82.1941 79.6941C96.5969 65.2914 116.131 57.2 136.5 57.2" stroke="#F39C45" stroke-opacity="0.6" stroke-width="4"/>
<path d="M85.3 134C85.3 120.421 90.6943 107.398 100.296 97.7962C109.898 88.1943 122.921 82.8 136.5 82.8" stroke="#F39C45" stroke-opacity="0.4" stroke-width="2"/>
<path d="M196.379 27.2727V84H186.019L161.339 48.2962H160.924V84H148.93V27.2727H159.456L183.942 62.9489H184.44V27.2727H196.379ZM218.198 84.8033C215.484 84.8033 213.065 84.3324 210.941 83.3906C208.818 82.4304 207.137 81.0178 205.9 79.1527C204.681 77.2692 204.072 74.924 204.072 72.1172C204.072 69.7536 204.506 67.7685 205.374 66.1619C206.242 64.5554 207.423 63.2628 208.919 62.2841C210.415 61.3054 212.114 60.5668 214.016 60.0682C215.936 59.5696 217.949 59.2188 220.054 59.0156C222.529 58.7571 224.523 58.517 226.037 58.2955C227.551 58.0554 228.65 57.7045 229.333 57.2429C230.017 56.7812 230.358 56.098 230.358 55.1932V55.027C230.358 53.2727 229.804 51.9155 228.696 50.9553C227.607 49.995 226.056 49.5149 224.043 49.5149C221.919 49.5149 220.23 49.9858 218.974 50.9276C217.718 51.8509 216.887 53.0142 216.481 54.4176L205.568 53.5312C206.122 50.946 207.211 48.7116 208.836 46.8281C210.461 44.9261 212.557 43.4673 215.124 42.4517C217.709 41.4176 220.7 40.9006 224.098 40.9006C226.462 40.9006 228.724 41.1776 230.884 41.7315C233.063 42.2855 234.993 43.1442 236.673 44.3075C238.372 45.4709 239.711 46.9666 240.69 48.7947C241.669 50.6044 242.158 52.7741 242.158 55.304V84H230.968V78.1001H230.635C229.952 79.4297 229.038 80.6023 227.893 81.6179C226.748 82.6151 225.372 83.3999 223.766 83.9723C222.159 84.5263 220.303 84.8033 218.198 84.8033ZM221.578 76.6598C223.313 76.6598 224.846 76.3182 226.176 75.6349C227.505 74.9332 228.548 73.9915 229.306 72.8097C230.063 71.6278 230.441 70.2891 230.441 68.7933V64.2784C230.072 64.5185 229.564 64.7401 228.918 64.9432C228.29 65.1278 227.579 65.3033 226.785 65.4695C225.991 65.6172 225.197 65.7557 224.403 65.8849C223.609 65.9957 222.889 66.0973 222.242 66.1896C220.857 66.3928 219.648 66.7159 218.614 67.1591C217.58 67.6023 216.776 68.2024 216.204 68.9595C215.632 69.6982 215.345 70.6214 215.345 71.7294C215.345 73.3359 215.927 74.5639 217.09 75.4134C218.272 76.2443 219.768 76.6598 221.578 76.6598ZM289.454 41.4545L274.579 84H261.284L246.41 41.4545H258.874L267.71 71.8956H268.153L276.961 41.4545H289.454Z" fill="#4AADA3"/>
<path d="M326.487 43.5874C326.265 41.353 325.314 39.6172 323.634 38.38C321.954 37.1428 319.673 36.5241 316.792 36.5241C314.835 36.5241 313.182 36.8011 311.834 37.3551C310.486 37.8906 309.452 38.6385 308.732 39.5987C308.03 40.5589 307.68 41.6484 307.68 42.8672C307.643 43.8828 307.855 44.7692 308.317 45.5263C308.797 46.2834 309.452 46.9389 310.283 47.4929C311.114 48.0284 312.074 48.4993 313.164 48.9055C314.253 49.2933 315.417 49.6257 316.654 49.9027L321.751 51.1214C324.225 51.6754 326.496 52.4141 328.564 53.3374C330.633 54.2607 332.424 55.3963 333.938 56.7443C335.452 58.0923 336.625 59.6804 337.456 61.5085C338.305 63.3366 338.739 65.4325 338.758 67.7962C338.739 71.2678 337.853 74.2777 336.099 76.826C334.363 79.3558 331.851 81.3224 328.564 82.7259C325.296 84.1108 321.354 84.8033 316.737 84.8033C312.157 84.8033 308.169 84.1016 304.771 82.6982C301.392 81.2947 298.751 79.2173 296.849 76.4659C294.966 73.696 293.978 70.2706 293.885 66.1896H305.491C305.621 68.0916 306.165 69.6797 307.126 70.9538C308.104 72.2095 309.406 73.1605 311.031 73.8068C312.675 74.4347 314.53 74.7486 316.599 74.7486C318.63 74.7486 320.393 74.4531 321.889 73.8622C323.403 73.2713 324.576 72.4496 325.407 71.397C326.238 70.3445 326.653 69.1349 326.653 67.7685C326.653 66.4943 326.275 65.4233 325.518 64.5554C324.779 63.6875 323.689 62.9489 322.249 62.3395C320.827 61.7301 319.082 61.1761 317.014 60.6776L310.837 59.1264C306.055 57.9631 302.278 56.1442 299.508 53.6697C296.738 51.1953 295.363 47.8622 295.381 43.6705C295.363 40.2358 296.277 37.2351 298.123 34.6683C299.988 32.1016 302.546 30.098 305.796 28.6577C309.046 27.2173 312.739 26.4972 316.876 26.4972C321.086 26.4972 324.76 27.2173 327.9 28.6577C331.057 30.098 333.513 32.1016 335.268 34.6683C337.022 37.2351 337.927 40.2081 337.982 43.5874H326.487ZM353.888 99.9545C352.392 99.9545 350.989 99.8345 349.678 99.5945C348.385 99.3729 347.314 99.0866 346.465 98.7358L349.124 89.9276C350.509 90.3523 351.755 90.5831 352.863 90.62C353.99 90.657 354.959 90.3984 355.772 89.8445C356.603 89.2905 357.277 88.3487 357.794 87.0192L358.486 85.2188L343.224 41.4545H355.633L364.441 72.6989H364.885L373.776 41.4545H386.268L369.732 88.598C368.938 90.8878 367.858 92.8821 366.491 94.581C365.143 96.2983 363.435 97.6186 361.367 98.5419C359.299 99.4837 356.806 99.9545 353.888 99.9545ZM427.706 53.5866L416.903 54.2514C416.718 53.3281 416.321 52.4972 415.712 51.7585C415.103 51.0014 414.299 50.4013 413.302 49.9581C412.324 49.4964 411.151 49.2656 409.784 49.2656C407.956 49.2656 406.414 49.6534 405.159 50.429C403.903 51.1861 403.275 52.2017 403.275 53.4759C403.275 54.4915 403.681 55.3501 404.494 56.0518C405.306 56.7536 406.701 57.3168 408.676 57.7415L416.377 59.2926C420.513 60.142 423.597 61.5085 425.628 63.392C427.659 65.2756 428.675 67.75 428.675 70.8153C428.675 73.6037 427.853 76.0504 426.21 78.1555C424.585 80.2607 422.35 81.9041 419.507 83.0859C416.681 84.2493 413.422 84.831 409.729 84.831C404.097 84.831 399.61 83.6584 396.267 81.3132C392.944 78.9496 390.995 75.7365 390.423 71.674L402.029 71.0646C402.38 72.782 403.229 74.093 404.577 74.9979C405.925 75.8842 407.652 76.3274 409.757 76.3274C411.825 76.3274 413.487 75.9304 414.743 75.1364C416.017 74.3239 416.663 73.2805 416.681 72.0064C416.663 70.9354 416.211 70.0582 415.324 69.375C414.438 68.6733 413.071 68.1378 411.225 67.7685L403.857 66.3004C399.702 65.4695 396.609 64.0291 394.578 61.9794C392.565 59.9297 391.559 57.3168 391.559 54.1406C391.559 51.4077 392.297 49.0533 393.775 47.0774C395.27 45.1016 397.366 43.5781 400.062 42.5071C402.777 41.4361 405.953 40.9006 409.591 40.9006C414.964 40.9006 419.193 42.0362 422.277 44.3075C425.379 46.5788 427.189 49.6719 427.706 53.5866ZM458.735 41.4545V50.3182H433.114V41.4545H458.735ZM438.931 31.2614H450.73V70.9261C450.73 72.0156 450.896 72.8651 451.229 73.4744C451.561 74.0653 452.023 74.4808 452.614 74.7209C453.223 74.9609 453.925 75.081 454.719 75.081C455.273 75.081 455.827 75.0348 456.381 74.9425C456.935 74.8317 457.36 74.7486 457.655 74.6932L459.511 83.4737C458.92 83.6584 458.089 83.8707 457.018 84.1108C455.947 84.3693 454.645 84.5263 453.112 84.5817C450.269 84.6925 447.776 84.3139 445.634 83.446C443.51 82.5781 441.857 81.2301 440.676 79.402C439.494 77.5739 438.912 75.2656 438.931 72.4773V31.2614ZM485.354 84.831C480.977 84.831 477.21 83.9446 474.053 82.1719C470.914 80.3807 468.494 77.8509 466.796 74.5824C465.097 71.2955 464.247 67.4084 464.247 62.9212C464.247 58.5447 465.097 54.7038 466.796 51.3984C468.494 48.093 470.886 45.517 473.97 43.6705C477.072 41.8239 480.71 40.9006 484.883 40.9006C487.69 40.9006 490.303 41.353 492.722 42.2578C495.159 43.1442 497.283 44.483 499.093 46.2741C500.921 48.0653 502.343 50.3182 503.358 53.0327C504.374 55.7287 504.882 58.8864 504.882 62.5057V65.7464H468.956V58.4339H493.774C493.774 56.7351 493.405 55.2301 492.666 53.919C491.928 52.608 490.903 51.5831 489.592 50.8445C488.299 50.0874 486.794 49.7088 485.077 49.7088C483.286 49.7088 481.698 50.1243 480.313 50.9553C478.946 51.7678 477.875 52.8665 477.1 54.2514C476.324 55.6179 475.927 57.1413 475.909 58.8217V65.7741C475.909 67.8793 476.296 69.6982 477.072 71.2308C477.866 72.7635 478.983 73.9453 480.423 74.7763C481.864 75.6072 483.572 76.0227 485.548 76.0227C486.859 76.0227 488.059 75.8381 489.149 75.4688C490.238 75.0994 491.171 74.5455 491.946 73.8068C492.722 73.0682 493.313 72.1634 493.719 71.0923L504.632 71.8125C504.078 74.4347 502.943 76.7244 501.225 78.6818C499.526 80.6207 497.329 82.1349 494.633 83.2244C491.955 84.2955 488.862 84.831 485.354 84.831ZM512.582 84V41.4545H523.828V48.9609H524.326C525.213 46.468 526.69 44.5014 528.758 43.0611C530.826 41.6207 533.301 40.9006 536.181 40.9006C539.099 40.9006 541.583 41.63 543.632 43.0888C545.682 44.5291 547.048 46.4865 547.732 48.9609H548.175C549.043 46.5234 550.612 44.5753 552.884 43.1165C555.173 41.6392 557.879 40.9006 560.999 40.9006C564.97 40.9006 568.192 42.1655 570.666 44.6953C573.159 47.2067 574.406 50.7706 574.406 55.3871V84H562.634V57.7138C562.634 55.3501 562.006 53.5774 560.75 52.3956C559.494 51.2138 557.925 50.6229 556.041 50.6229C553.899 50.6229 552.228 51.3061 551.028 52.6726C549.828 54.0206 549.227 55.8026 549.227 58.0185V84H537.788V57.4645C537.788 55.3778 537.188 53.7159 535.987 52.4787C534.806 51.2415 533.245 50.6229 531.306 50.6229C529.995 50.6229 528.813 50.9553 527.761 51.62C526.727 52.2663 525.905 53.1804 525.296 54.3622C524.686 55.5256 524.382 56.892 524.382 58.4616V84H512.582Z" fill="#2C7A71"/>
<path d="M153.172 107V123H150.758V107H153.172ZM169.602 107V123H167.383L159.25 111.266H159.102V123H156.688V107H158.922L167.063 118.75H167.211V107H169.602ZM172.334 109.078V107H184.717V109.078H179.725V123H177.318V109.078H172.334ZM187.453 123V107H197.484V109.078H189.867V113.953H196.961V116.023H189.867V120.922H197.578V123H187.453ZM200.709 123V107H203.123V120.922H210.373V123H200.709ZM213.127 123V107H215.541V120.922H222.791V123H213.127ZM227.959 107V123H225.545V107H227.959ZM242.303 112.055C242.152 111.581 241.949 111.156 241.693 110.781C241.443 110.401 241.144 110.078 240.795 109.813C240.446 109.542 240.048 109.336 239.6 109.195C239.157 109.055 238.67 108.984 238.139 108.984C237.238 108.984 236.425 109.216 235.701 109.68C234.977 110.143 234.404 110.823 233.982 111.719C233.566 112.609 233.357 113.701 233.357 114.992C233.357 116.289 233.568 117.385 233.99 118.281C234.412 119.177 234.99 119.857 235.725 120.32C236.459 120.784 237.295 121.016 238.232 121.016C239.102 121.016 239.86 120.839 240.506 120.484C241.157 120.13 241.66 119.63 242.014 118.984C242.373 118.333 242.553 117.568 242.553 116.688L243.178 116.805H238.6V114.812H244.889V116.633C244.889 117.977 244.602 119.143 244.029 120.133C243.462 121.117 242.675 121.878 241.67 122.414C240.67 122.951 239.524 123.219 238.232 123.219C236.785 123.219 235.514 122.885 234.42 122.219C233.331 121.552 232.482 120.607 231.873 119.383C231.264 118.154 230.959 116.695 230.959 115.008C230.959 113.732 231.136 112.586 231.49 111.57C231.844 110.555 232.342 109.693 232.982 108.984C233.628 108.271 234.386 107.727 235.256 107.352C236.131 106.971 237.087 106.781 238.123 106.781C238.988 106.781 239.792 106.909 240.537 107.164C241.287 107.419 241.954 107.781 242.537 108.25C243.126 108.719 243.613 109.276 243.998 109.922C244.383 110.562 244.644 111.273 244.779 112.055H242.303ZM247.953 123V107H257.984V109.078H250.367V113.953H257.461V116.023H250.367V120.922H258.078V123H247.953ZM274.123 107V123H271.904L263.771 111.266H263.623V123H261.209V107H263.443L271.584 118.75H271.732V107H274.123ZM276.855 109.078V107H289.238V109.078H284.246V123H281.84V109.078H276.855ZM310.711 107V123H308.492L300.359 111.266H300.211V123H297.797V107H300.031L308.172 118.75H308.32V107H310.711ZM315.584 123H313.021L318.779 107H321.568L327.326 123H324.764L320.24 109.906H320.115L315.584 123ZM316.014 116.734H324.326V118.766H316.014V116.734ZM329.359 107L333.813 120.031H333.992L338.445 107H341.055L335.297 123H332.508L326.75 107H329.359ZM345.779 107V123H343.365V107H345.779ZM360.123 112.055C359.972 111.581 359.769 111.156 359.514 110.781C359.264 110.401 358.964 110.078 358.615 109.813C358.266 109.542 357.868 109.336 357.42 109.195C356.977 109.055 356.49 108.984 355.959 108.984C355.058 108.984 354.245 109.216 353.521 109.68C352.798 110.143 352.225 110.823 351.803 111.719C351.386 112.609 351.178 113.701 351.178 114.992C351.178 116.289 351.389 117.385 351.811 118.281C352.232 119.177 352.811 119.857 353.545 120.32C354.279 120.784 355.115 121.016 356.053 121.016C356.923 121.016 357.68 120.839 358.326 120.484C358.977 120.13 359.48 119.63 359.834 118.984C360.193 118.333 360.373 117.568 360.373 116.688L360.998 116.805H356.42V114.812H362.709V116.633C362.709 117.977 362.423 119.143 361.85 120.133C361.282 121.117 360.495 121.878 359.49 122.414C358.49 122.951 357.344 123.219 356.053 123.219C354.605 123.219 353.334 122.885 352.24 122.219C351.152 121.552 350.303 120.607 349.693 119.383C349.084 118.154 348.779 116.695 348.779 115.008C348.779 113.732 348.956 112.586 349.311 111.57C349.665 110.555 350.162 109.693 350.803 108.984C351.449 108.271 352.206 107.727 353.076 107.352C353.951 106.971 354.907 106.781 355.943 106.781C356.808 106.781 357.613 106.909 358.357 107.164C359.107 107.419 359.774 107.781 360.357 108.25C360.946 108.719 361.433 109.276 361.818 109.922C362.204 110.562 362.464 111.273 362.6 112.055H360.123ZM366.631 123H364.068L369.826 107H372.615L378.373 123H375.811L371.287 109.906H371.162L366.631 123ZM367.061 116.734H375.373V118.766H367.061V116.734ZM378.004 109.078V107H390.387V109.078H385.395V123H382.988V109.078H378.004ZM395.537 107V123H393.123V107H395.537ZM412.951 115C412.951 116.708 412.639 118.177 412.014 119.406C411.389 120.63 410.532 121.573 409.443 122.234C408.36 122.891 407.128 123.219 405.748 123.219C404.363 123.219 403.126 122.891 402.037 122.234C400.954 121.573 400.1 120.628 399.475 119.398C398.85 118.169 398.537 116.703 398.537 115C398.537 113.292 398.85 111.826 399.475 110.602C400.1 109.372 400.954 108.43 402.037 107.773C403.126 107.112 404.363 106.781 405.748 106.781C407.128 106.781 408.36 107.112 409.443 107.773C410.532 108.43 411.389 109.372 412.014 110.602C412.639 111.826 412.951 113.292 412.951 115ZM410.561 115C410.561 113.698 410.35 112.602 409.928 111.711C409.511 110.815 408.938 110.138 408.209 109.68C407.485 109.216 406.665 108.984 405.748 108.984C404.826 108.984 404.003 109.216 403.279 109.68C402.555 110.138 401.982 110.815 401.561 111.711C401.144 112.602 400.936 113.698 400.936 115C400.936 116.302 401.144 117.401 401.561 118.297C401.982 119.187 402.555 119.865 403.279 120.328C404.003 120.786 404.826 121.016 405.748 121.016C406.665 121.016 407.485 120.786 408.209 120.328C408.938 119.865 409.511 119.187 409.928 118.297C410.35 117.401 410.561 116.302 410.561 115ZM428.875 107V123H426.656L418.523 111.266H418.375V123H415.961V107H418.195L426.336 118.75H426.484V107H428.875ZM446.945 111.203C446.862 110.464 446.518 109.891 445.914 109.484C445.31 109.073 444.549 108.867 443.633 108.867C442.977 108.867 442.409 108.971 441.93 109.18C441.451 109.383 441.078 109.664 440.813 110.023C440.552 110.378 440.422 110.781 440.422 111.234C440.422 111.615 440.51 111.943 440.688 112.219C440.87 112.495 441.107 112.727 441.398 112.914C441.695 113.096 442.013 113.25 442.352 113.375C442.69 113.495 443.016 113.594 443.328 113.672L444.891 114.078C445.401 114.203 445.924 114.372 446.461 114.586C446.997 114.799 447.495 115.081 447.953 115.43C448.411 115.779 448.781 116.211 449.063 116.727C449.349 117.242 449.492 117.859 449.492 118.578C449.492 119.484 449.258 120.289 448.789 120.992C448.326 121.695 447.651 122.25 446.766 122.656C445.885 123.063 444.82 123.266 443.57 123.266C442.372 123.266 441.336 123.076 440.461 122.695C439.586 122.315 438.901 121.776 438.406 121.078C437.911 120.375 437.638 119.542 437.586 118.578H440.008C440.055 119.156 440.242 119.638 440.57 120.023C440.904 120.404 441.328 120.687 441.844 120.875C442.365 121.057 442.935 121.148 443.555 121.148C444.237 121.148 444.844 121.042 445.375 120.828C445.911 120.609 446.333 120.307 446.641 119.922C446.948 119.531 447.102 119.076 447.102 118.555C447.102 118.081 446.966 117.693 446.695 117.391C446.43 117.089 446.068 116.839 445.609 116.641C445.156 116.443 444.643 116.268 444.07 116.117L442.18 115.602C440.898 115.253 439.883 114.74 439.133 114.062C438.388 113.385 438.016 112.49 438.016 111.375C438.016 110.453 438.266 109.648 438.766 108.961C439.266 108.273 439.943 107.74 440.797 107.359C441.651 106.974 442.615 106.781 443.688 106.781C444.771 106.781 445.727 106.971 446.555 107.352C447.388 107.732 448.044 108.255 448.523 108.922C449.003 109.583 449.253 110.344 449.273 111.203H446.945ZM466.275 115C466.275 116.708 465.963 118.177 465.338 119.406C464.713 120.63 463.856 121.573 462.768 122.234C461.684 122.891 460.452 123.219 459.072 123.219C457.687 123.219 456.45 122.891 455.361 122.234C454.278 121.573 453.424 120.628 452.799 119.398C452.174 118.169 451.861 116.703 451.861 115C451.861 113.292 452.174 111.826 452.799 110.602C453.424 109.372 454.278 108.43 455.361 107.773C456.45 107.112 457.687 106.781 459.072 106.781C460.452 106.781 461.684 107.112 462.768 107.773C463.856 108.43 464.713 109.372 465.338 110.602C465.963 111.826 466.275 113.292 466.275 115ZM463.885 115C463.885 113.698 463.674 112.602 463.252 111.711C462.835 110.815 462.262 110.138 461.533 109.68C460.809 109.216 459.989 108.984 459.072 108.984C458.15 108.984 457.327 109.216 456.604 109.68C455.88 110.138 455.307 110.815 454.885 111.711C454.468 112.602 454.26 113.698 454.26 115C454.26 116.302 454.468 117.401 454.885 118.297C455.307 119.187 455.88 119.865 456.604 120.328C457.327 120.786 458.15 121.016 459.072 121.016C459.989 121.016 460.809 120.786 461.533 120.328C462.262 119.865 462.835 119.187 463.252 118.297C463.674 117.401 463.885 116.302 463.885 115ZM469.285 123V107H471.699V120.922H478.949V123H469.285ZM491.992 107H494.414V117.523C494.414 118.643 494.151 119.635 493.625 120.5C493.099 121.359 492.359 122.036 491.406 122.531C490.453 123.021 489.336 123.266 488.055 123.266C486.779 123.266 485.664 123.021 484.711 122.531C483.758 122.036 483.018 121.359 482.492 120.5C481.966 119.635 481.703 118.643 481.703 117.523V107H484.117V117.328C484.117 118.052 484.276 118.695 484.594 119.258C484.917 119.82 485.372 120.263 485.961 120.586C486.549 120.904 487.247 121.062 488.055 121.062C488.867 121.062 489.568 120.904 490.156 120.586C490.75 120.263 491.203 119.82 491.516 119.258C491.833 118.695 491.992 118.052 491.992 117.328V107ZM497.135 109.078V107H509.518V109.078H504.525V123H502.119V109.078H497.135ZM514.668 107V123H512.254V107H514.668ZM532.082 115C532.082 116.708 531.77 118.177 531.145 119.406C530.52 120.63 529.663 121.573 528.574 122.234C527.491 122.891 526.259 123.219 524.879 123.219C523.493 123.219 522.257 122.891 521.168 122.234C520.085 121.573 519.23 120.628 518.605 119.398C517.98 118.169 517.668 116.703 517.668 115C517.668 113.292 517.98 111.826 518.605 110.602C519.23 109.372 520.085 108.43 521.168 107.773C522.257 107.112 523.493 106.781 524.879 106.781C526.259 106.781 527.491 107.112 528.574 107.773C529.663 108.43 530.52 109.372 531.145 110.602C531.77 111.826 532.082 113.292 532.082 115ZM529.691 115C529.691 113.698 529.48 112.602 529.059 111.711C528.642 110.815 528.069 110.138 527.34 109.68C526.616 109.216 525.796 108.984 524.879 108.984C523.957 108.984 523.134 109.216 522.41 109.68C521.686 110.138 521.113 110.815 520.691 111.711C520.275 112.602 520.066 113.698 520.066 115C520.066 116.302 520.275 117.401 520.691 118.297C521.113 119.187 521.686 119.865 522.41 120.328C523.134 120.786 523.957 121.016 524.879 121.016C525.796 121.016 526.616 120.786 527.34 120.328C528.069 119.865 528.642 119.187 529.059 118.297C529.48 117.401 529.691 116.302 529.691 115ZM548.006 107V123H545.787L537.654 111.266H537.506V123H535.092V107H537.326L545.467 118.75H545.615V107H548.006ZM560.254 111.203C560.171 110.464 559.827 109.891 559.223 109.484C558.618 109.073 557.858 108.867 556.941 108.867C556.285 108.867 555.717 108.971 555.238 109.18C554.759 109.383 554.387 109.664 554.121 110.023C553.861 110.378 553.73 110.781 553.73 111.234C553.73 111.615 553.819 111.943 553.996 112.219C554.178 112.495 554.415 112.727 554.707 112.914C555.004 113.096 555.322 113.25 555.66 113.375C555.999 113.495 556.324 113.594 556.637 113.672L558.199 114.078C558.71 114.203 559.233 114.372 559.77 114.586C560.306 114.799 560.803 115.081 561.262 115.43C561.72 115.779 562.09 116.211 562.371 116.727C562.658 117.242 562.801 117.859 562.801 118.578C562.801 119.484 562.566 120.289 562.098 120.992C561.634 121.695 560.96 122.25 560.074 122.656C559.194 123.063 558.129 123.266 556.879 123.266C555.681 123.266 554.645 123.076 553.77 122.695C552.895 122.315 552.21 121.776 551.715 121.078C551.22 120.375 550.947 119.542 550.895 118.578H553.316C553.363 119.156 553.551 119.638 553.879 120.023C554.212 120.404 554.637 120.687 555.152 120.875C555.673 121.057 556.243 121.148 556.863 121.148C557.546 121.148 558.152 121.042 558.684 120.828C559.22 120.609 559.642 120.307 559.949 119.922C560.257 119.531 560.41 119.076 560.41 118.555C560.41 118.081 560.275 117.693 560.004 117.391C559.738 117.089 559.376 116.839 558.918 116.641C558.465 116.443 557.952 116.268 557.379 116.117L555.488 115.602C554.207 115.253 553.191 114.74 552.441 114.062C551.697 113.385 551.324 112.49 551.324 111.375C551.324 110.453 551.574 109.648 552.074 108.961C552.574 108.273 553.251 107.74 554.105 107.359C554.96 106.974 555.923 106.781 556.996 106.781C558.079 106.781 559.035 106.971 559.863 107.352C560.697 107.732 561.353 108.255 561.832 108.922C562.311 109.583 562.561 110.344 562.582 111.203H560.254Z" fill="#1328FB"/>
</svg>
